<?xml version="1.0" encoding="UTF-8" standalone="no"?>
<svg
   xmlns:dc="http://purl.org/dc/elements/1.1/"
   xmlns:cc="http://creativecommons.org/ns#"
   xmlns:rdf="http://www.w3.org/1999/02/22-rdf-syntax-ns#"
   xmlns:svg="http://www.w3.org/2000/svg"
   xmlns="http://www.w3.org/2000/svg"
   version="1.1"
   id="svg8503"
   viewBox="0 0 50.682784 100"
   height="100"
   width="50.682785">
  <defs
     id="defs8505" />
  <metadata
     id="metadata8508">
    <rdf:RDF>
      <cc:Work
         rdf:about="">
        <dc:format>image/svg+xml</dc:format>
        <dc:type
           rdf:resource="http://purl.org/dc/dcmitype/StillImage" />
        <dc:title></dc:title>
      </cc:Work>
    </rdf:RDF>
  </metadata>
  <path
     style="fill:#555555;fill-opacity:1;fill-rule:nonzero;stroke:none;stroke-width:0.37176037;stroke-linecap:butt;stroke-linejoin:round;stroke-miterlimit:4;stroke-dasharray:none;stroke-opacity:1"
     d="M 9.381159,1.0000001e-7 C 4.184023,1.0000001e-7 0,4.1840047 0,9.3811497 L 0,90.618896 C 0,95.815954 4.184023,100 9.381159,100 l 31.920476,0 c 5.197102,0 9.38115,-4.184046 9.38115,-9.381104 l 0,-81.2377463 C 50.682785,4.1840046 46.498737,0 41.301635,0 L 9.381159,0 Z M 10.035527,11.005815 l 30.610689,0 c 1.88428,0 3.401648,1.516398 3.401648,3.400611 0,1.884302 -1.517368,3.401672 -3.401648,3.401672 l -30.610689,0 c -1.884262,0 -3.400677,-1.51737 -3.400677,-3.401672 0,-1.884213 1.516415,-3.400611 3.400677,-3.400611 z m 0,10.384526 30.610689,0 c 1.88428,0 3.401648,1.516421 3.401648,3.400633 0,1.884258 -1.517368,3.401628 -3.401648,3.401628 l -30.610689,0 c -1.884262,0 -3.400677,-1.51737 -3.400677,-3.401628 0,-1.884212 1.516415,-3.400633 3.400677,-3.400633 z m 0,10.384483 30.610689,0 c 1.88428,0 3.401648,1.517391 3.401648,3.401627 0,1.884214 -1.517368,3.400677 -3.401648,3.400677 l -30.610689,0 c -1.884262,0 -3.400677,-1.516463 -3.400677,-3.400677 0,-1.884236 1.516415,-3.401627 3.400677,-3.401627 z m 30.610689,37.692955 c 1.88428,0 3.401648,1.517347 3.401648,3.401583 l 0,8.609464 c 0,1.884325 -1.517368,3.4007 -3.401648,3.4007 -1.884236,0 -3.400656,-1.516375 -3.400656,-3.4007 l 0,-8.609464 c 0,-1.884236 1.51642,-3.401583 3.400656,-3.401583 z m -9.14091,8.609465 a 3.401193,3.401193 0 0 1 3.401627,3.401582 3.401193,3.401193 0 0 1 -3.401627,3.4007 3.401193,3.401193 0 0 1 -3.400677,-3.4007 3.401193,3.401193 0 0 1 3.400677,-3.401582 z"
     id="rect4136-0-9-0-9-3-9-2-4-2-3" />
</svg>
