<?xml version="1.0" encoding="UTF-8" standalone="no"?>
<svg
   xmlns:dc="http://purl.org/dc/elements/1.1/"
   xmlns:cc="http://creativecommons.org/ns#"
   xmlns:rdf="http://www.w3.org/1999/02/22-rdf-syntax-ns#"
   xmlns:svg="http://www.w3.org/2000/svg"
   xmlns="http://www.w3.org/2000/svg"
   width="257.04227"
   height="104.2972"
   viewBox="0 0 72.543039 29.434991"
   id="svg4706"
   version="1.1">
  <defs
     id="defs3" />
  <metadata
     id="metadata4710">
    <rdf:RDF>
      <cc:Work
         rdf:about="">
        <dc:format>image/svg+xml</dc:format>
        <dc:type
           rdf:resource="http://purl.org/dc/dcmitype/StillImage" />
        <dc:title></dc:title>
      </cc:Work>
    </rdf:RDF>
  </metadata>
  <path
     id="path4684"
     d="m 28.14614,9.7242633 c -4.479682,0.066875 -8.646111,3.0992087 -9.687845,7.6510727 -0.25251,1.103341 -0.291672,2.221455 -0.146475,3.303998 l 2.079494,0 c -0.161229,-0.927914 -0.147149,-1.894852 0.07046,-2.84571 0.935146,-4.086115 5.154299,-6.662789 9.251749,-5.927224 a 1.0287351,1.0287351 0 0 0 0.659691,-0.102643 l 0.536518,-1.07581 A 1.0287351,1.0287351 0 0 0 30.076939,9.8812796 C 29.432392,9.7655722 28.786094,9.7147101 28.14614,9.7242633 Z m 0.133159,3.5325877 c -3.012419,0.0031 -5.867192,2.041191 -6.435446,5.180425 -0.136168,0.752227 -0.116486,1.514309 0.03773,2.242058 l 2.133313,0 c -0.200887,-0.593218 -0.263233,-1.240623 -0.148141,-1.876427 0.398138,-2.199439 2.560947,-3.628143 4.747105,-3.47433 l 0.969839,-1.943561 c -0.0033,-6.73e-4 -0.0066,-0.0015 -0.01,-0.0022 -0.430569,-0.08534 -0.864069,-0.126389 -1.294412,-0.125946 z m 3.484315,0.963736 -0.923232,1.85035 c 1.525354,0.975024 2.46445,2.75633 2.466208,4.608397 l 2.057302,0 c 4.05e-4,-2.62114 -1.362076,-5.131459 -3.600278,-6.458747 z m -3.87103,2.553315 c -0.604102,0.06474 -1.17566,0.300642 -1.655051,0.686324 -0.616609,0.496071 -1.0786,1.320345 -1.012561,2.248714 a 1.0279598,1.0279598 0 0 0 0.974831,0.970394 l 0.102644,0 a 1.0279598,1.0279598 0 0 0 0.522646,-0.175325 C 26.529445,20.16029 26.452314,19.660872 26.668078,19.228461 l 1.224506,-2.454559 z m 2.299205,0.596995 -0.945427,1.894738 c 0.348334,0.358916 0.556792,0.884937 0.548169,1.413699 l 2.055637,0 c 0.01007,-1.295145 -0.606669,-2.577515 -1.658379,-3.308437 z"
     style="color:#000000;font-style:normal;font-variant:normal;font-weight:normal;font-stretch:normal;font-size:medium;line-height:normal;font-family:sans-serif;text-indent:0;text-align:start;text-decoration:none;text-decoration-line:none;text-decoration-style:solid;text-decoration-color:#000000;letter-spacing:normal;word-spacing:normal;text-transform:none;direction:ltr;block-progression:tb;writing-mode:lr-tb;baseline-shift:baseline;text-anchor:start;white-space:normal;clip-rule:nonzero;display:inline;overflow:visible;visibility:visible;opacity:1;isolation:auto;mix-blend-mode:normal;color-interpolation:sRGB;color-interpolation-filters:linearRGB;solid-color:#000000;solid-opacity:1;fill:#ff8800;fill-opacity:0.07843138;fill-rule:evenodd;stroke:none;stroke-width:2.04233003;stroke-linecap:round;stroke-linejoin:miter;stroke-miterlimit:4;stroke-dasharray:none;stroke-dashoffset:0;stroke-opacity:1;color-rendering:auto;image-rendering:auto;shape-rendering:auto;text-rendering:auto;enable-background:accumulate" />
  <path
     id="rect4690-6"
     d="m 35.339513,1.4127645 c -0.359746,-0.02067 -0.719647,0.1694287 -0.888007,0.5076693 l -2.067611,4.1534074 c -0.224479,0.4509864 -0.03371,1.0157538 0.417272,1.2402347 l 1.731919,0.8615495 c 0.450985,0.224481 1.014651,0.035923 1.23913,-0.4150651 L 37.839274,3.6071527 C 38.063757,3.1561652 37.875198,2.592502 37.42421,2.3680207 L 35.692291,1.5059199 c -0.112748,-0.05612 -0.232862,-0.086266 -0.352778,-0.093155 z"
     style="color:#000000;font-style:normal;font-variant:normal;font-weight:normal;font-stretch:normal;font-size:medium;line-height:normal;font-family:sans-serif;text-indent:0;text-align:start;text-decoration:none;text-decoration-line:none;text-decoration-style:solid;text-decoration-color:#000000;letter-spacing:normal;word-spacing:normal;text-transform:none;direction:ltr;block-progression:tb;writing-mode:lr-tb;baseline-shift:baseline;text-anchor:start;white-space:normal;clip-rule:nonzero;display:inline;overflow:visible;visibility:visible;opacity:1;isolation:auto;mix-blend-mode:normal;color-interpolation:sRGB;color-interpolation-filters:linearRGB;solid-color:#000000;solid-opacity:1;fill:#ff0000;fill-opacity:0.07843138;fill-rule:evenodd;stroke:none;stroke-width:0.97234654;stroke-linecap:round;stroke-linejoin:round;stroke-miterlimit:4;stroke-dasharray:none;stroke-dashoffset:0;stroke-opacity:1;color-rendering:auto;image-rendering:auto;shape-rendering:auto;text-rendering:auto;enable-background:accumulate" />
  <path
     id="rect4692-3-2"
     d="M 26.841894,19.635099 32.503312,8.2477419 C 32.66509,7.9223427 33.057293,7.7906181 33.382693,7.9523962 l 0.311363,0.1547995 c 0.325401,0.1617782 0.457125,0.5539823 0.295347,0.8793814 L 28.327984,20.373935 c -0.161778,0.3254 -0.553982,0.457123 -0.879382,0.295345 l -0.311363,-0.1548 c -0.3254,-0.161778 -0.457124,-0.55398 -0.295345,-0.879381 z"
     style="opacity:1;fill:#ff0000;fill-opacity:0.07843138;fill-rule:evenodd;stroke:none;stroke-width:0.27616283;stroke-linecap:round;stroke-linejoin:round;stroke-miterlimit:4;stroke-dasharray:none;stroke-opacity:1" />
  <path
     d="m 2.217294,25.041115 q 0,-0.08062 0.214974,-0.08062 l 0.519521,0 q 0.537435,0 0.859896,-0.313504 0.313503,-0.322461 0.322461,-0.931554 0,-0.600135 -0.331419,-0.904682 Q 3.471309,22.497256 2.91596,22.497256 l -1.119657,0 0,5.365393 q 0,0.05374 -0.05374,0.08957 -0.0627,0.04479 -0.143316,0.04479 -0.02687,0 -0.05374,-0.009 -0.02687,0 -0.05374,-0.009 -0.01792,-0.009 -0.03583,-0.01791 -0.02687,-0.01791 -0.03583,-0.03583 -0.009,-0.02687 -0.009,-0.0627 l 0,-5.589324 q 0,-0.07166 0.01791,-0.08957 0.02687,-0.02687 0.107487,-0.02687 l 1.379417,0 q 0.134358,0 0.250803,0.01791 0.125401,0.009 0.241845,0.04479 0.116445,0.02687 0.232889,0.07166 0.116444,0.04479 0.214974,0.107487 0.107487,0.05374 0.197059,0.125401 0.223932,0.170188 0.340376,0.465777 0.116444,0.295589 0.116444,0.707623 0,0.806152 -0.429948,1.200271 -0.420991,0.394119 -1.209229,0.394119 l -0.143316,0 1.764579,2.472201 q 0.009,0.02687 0.009,0.0627 0,0.0627 -0.07166,0.125402 -0.0627,0.0627 -0.152273,0.07166 -0.0627,-0.04479 -0.223932,-0.259761 L 2.342696,25.309833 q -0.04479,-0.0627 -0.07166,-0.116445 -0.02687,-0.05374 -0.04479,-0.08957 -0.009,-0.03583 -0.009,-0.0627 z"
     style="font-style:normal;font-variant:normal;font-weight:normal;font-stretch:normal;font-size:9.17222404px;line-height:0;font-family:DosisRLS-Thin;-inkscape-font-specification:'DosisRLS-Thin, Normal';text-align:start;letter-spacing:0.00282222px;word-spacing:0.84666675px;writing-mode:lr-tb;text-anchor:start;fill:#ff8800;fill-opacity:0.07843138;stroke:none;stroke-width:1px;stroke-linecap:butt;stroke-linejoin:miter;stroke-opacity:1"
     id="path4156" />
  <path
     d="m 8.893268,25.93684 -3.305226,-0.01791 0,0.08957 q 0,0.725537 0.492649,1.164443 0.474734,0.474734 1.128614,0.474734 l 0.02687,0 q 0.877811,0 1.442118,-0.564307 L 8.84848,26.895267 q 0.07166,-0.08062 0.107487,-0.08957 0.134359,0.009 0.179145,0.09853 0,0.009 0,0.01791 l 0,0.07166 q -0.01791,0.07166 -0.214974,0.322461 -0.662836,0.662836 -1.69292,0.662836 l -0.125401,0 q -0.689709,0 -1.280887,-0.61805 -0.61805,-0.61805 -0.61805,-1.486904 0,-0.895725 0.609093,-1.531689 0.609093,-0.644922 1.397331,-0.65388 l 0.009,0 q 0.770323,0 1.379416,0.618051 0.618051,0.609093 0.618051,1.298801 l 0,0.07166 q 0,0.25976 -0.322461,0.25976 z m -3.305226,-0.45682 -0.02687,0.116445 3.323139,0 -0.02687,-0.116445 Q 8.732039,24.915714 8.391664,24.575338 7.872143,24.028946 7.200349,24.028946 q -0.671793,0 -1.13757,0.546392 -0.367248,0.394119 -0.474735,0.904682 z"
     style="font-style:normal;font-variant:normal;font-weight:normal;font-stretch:normal;font-size:9.17222404px;line-height:0;font-family:DosisRLS-Thin;-inkscape-font-specification:'DosisRLS-Thin, Normal';text-align:start;letter-spacing:0.00282222px;word-spacing:0.84666675px;writing-mode:lr-tb;text-anchor:start;fill:#ff8800;fill-opacity:0.07843138;stroke:none;stroke-width:1px;stroke-linecap:butt;stroke-linejoin:miter;stroke-opacity:1"
     id="path4158" />
  <path
     d="m 10.830856,24.548466 q -0.528478,0.528478 -0.528478,1.280887 0,0.752409 0.528478,1.289844 0.510563,0.528478 1.209229,0.528478 0.349332,0 0.644922,-0.134359 0.295589,-0.134359 0.537435,-0.394119 0.25976,-0.268717 0.394119,-0.591178 0.134358,-0.322461 0.134358,-0.698666 0,-0.250803 -0.0627,-0.474734 -0.05374,-0.223931 -0.179145,-0.429948 -0.116445,-0.206017 -0.286632,-0.376205 -0.241846,-0.25976 -0.537435,-0.394119 -0.29559,-0.134358 -0.644922,-0.134358 -0.698666,0 -1.209229,0.528477 z m 3.152952,2.095997 -0.179145,0.277675 q -0.04479,0.07166 -0.367247,0.429948 -0.600136,0.635964 -1.415246,0.635964 l -0.009,0 q -0.806153,0 -1.43316,-0.635964 -0.627008,-0.627008 -0.627008,-1.513776 0,-0.895725 0.635965,-1.531689 0.627008,-0.635965 1.43316,-0.635965 l 0.009,0 q 0.752409,0 1.406289,0.635965 0.125401,0.125401 0.340375,0.465777 l 0.179145,0.286632 0,-2.776748 q 0,-0.125402 0.179145,-0.125402 0.161231,0 0.161231,0.125402 l 0.02687,5.553495 q 0,0.152273 -0.16123,0.152273 -0.170188,0 -0.170188,-0.152273 l -0.009,-1.191314 z"
     style="font-style:normal;font-variant:normal;font-weight:normal;font-stretch:normal;font-size:9.17222404px;line-height:0;font-family:DosisRLS-Thin;-inkscape-font-specification:'DosisRLS-Thin, Normal';text-align:start;letter-spacing:0.00282222px;word-spacing:0.84666675px;writing-mode:lr-tb;text-anchor:start;fill:#ff8800;fill-opacity:0.07843138;stroke:none;stroke-width:1px;stroke-linecap:butt;stroke-linejoin:miter;stroke-opacity:1"
     id="path4160" />
  <path
     d="m 17.675568,27.835777 0,-5.517666 q 0,-0.134359 0.214974,-0.134359 0.214974,0 0.214974,0.134359 l 0,5.293735 2.525945,0 q 0.107487,0 0.107487,0.179145 0,0.197059 -0.107487,0.197059 l -2.758833,0 q -0.188103,0 -0.19706,-0.152273 z"
     style="font-style:normal;font-variant:normal;font-weight:normal;font-stretch:normal;font-size:9.17222404px;line-height:0;font-family:DosisRLS-Thin;-inkscape-font-specification:'DosisRLS-Thin, Normal';text-align:start;letter-spacing:0.00282222px;word-spacing:0.84666675px;writing-mode:lr-tb;text-anchor:start;fill:#ff0000;fill-opacity:0.07843138;stroke:none;stroke-width:1px;stroke-linecap:butt;stroke-linejoin:miter;stroke-opacity:1"
     id="path4162" />
  <path
     d="m 25.139778,25.93684 -3.305225,-0.01791 0,0.08957 q 0,0.725537 0.492649,1.164443 0.474734,0.474734 1.128613,0.474734 l 0.02687,0 q 0.87781,0 1.442117,-0.564307 l 0.170188,-0.188102 q 0.07166,-0.08062 0.107487,-0.08957 0.134359,0.009 0.179145,0.09853 0,0.009 0,0.01791 l 0,0.07166 q -0.01792,0.07166 -0.214974,0.322461 -0.662837,0.662836 -1.69292,0.662836 l -0.125402,0 q -0.689708,0 -1.280887,-0.61805 -0.61805,-0.61805 -0.61805,-1.486904 0,-0.895725 0.609093,-1.531689 0.609093,-0.644922 1.397331,-0.65388 l 0.009,0 q 0.770324,0 1.379417,0.618051 0.61805,0.609093 0.61805,1.298801 l 0,0.07166 q 0,0.25976 -0.322461,0.25976 z m -3.305225,-0.45682 -0.02687,0.116445 3.32314,0 -0.02687,-0.116445 q -0.125401,-0.564306 -0.465777,-0.904682 -0.51952,-0.546392 -1.191314,-0.546392 -0.671794,0 -1.137571,0.546392 -0.367247,0.394119 -0.474734,0.904682 z"
     style="font-style:normal;font-variant:normal;font-weight:normal;font-stretch:normal;font-size:9.17222404px;line-height:0;font-family:DosisRLS-Thin;-inkscape-font-specification:'DosisRLS-Thin, Normal';text-align:start;letter-spacing:0.00282222px;word-spacing:0.84666675px;writing-mode:lr-tb;text-anchor:start;fill:#ff0000;fill-opacity:0.07843138;stroke:none;stroke-width:1px;stroke-linecap:butt;stroke-linejoin:miter;stroke-opacity:1"
     id="path4164" />
  <path
     d="m 26.360786,23.68857 q 0.206017,-0.07166 0.259761,0.08062 l 1.200271,3.564986 1.200272,-3.547071 q 0.0627,-0.179145 0.322461,-0.07166 0.116444,0.04479 0.0627,0.241845 l -1.424202,3.923276 q -0.02687,0.08957 -0.161231,0.08957 -0.134359,0 -0.16123,-0.08957 -0.958426,-2.4095 -1.424203,-3.905361 -0.0627,-0.214974 0.125401,-0.286632 z"
     style="font-style:normal;font-variant:normal;font-weight:normal;font-stretch:normal;font-size:9.17222404px;line-height:0;font-family:DosisRLS-Thin;-inkscape-font-specification:'DosisRLS-Thin, Normal';text-align:start;letter-spacing:0.00282222px;word-spacing:0.84666675px;writing-mode:lr-tb;text-anchor:start;fill:#ff0000;fill-opacity:0.07843138;stroke:none;stroke-width:1px;stroke-linecap:butt;stroke-linejoin:miter;stroke-opacity:1"
     id="path4166" />
  <path
     d="m 33.833954,25.93684 -3.305225,-0.01791 0,0.08957 q 0,0.725537 0.492648,1.164443 0.474735,0.474734 1.128614,0.474734 l 0.02687,0 q 0.87781,0 1.442117,-0.564307 l 0.170188,-0.188102 q 0.07166,-0.08062 0.107487,-0.08957 0.134358,0.009 0.179145,0.09853 0,0.009 0,0.01791 l 0,0.07166 q -0.01792,0.07166 -0.214974,0.322461 -0.662837,0.662836 -1.692921,0.662836 l -0.125401,0 q -0.689708,0 -1.280887,-0.61805 -0.61805,-0.61805 -0.61805,-1.486904 0,-0.895725 0.609093,-1.531689 0.609093,-0.644922 1.397331,-0.65388 l 0.009,0 q 0.770324,0 1.379417,0.618051 0.61805,0.609093 0.61805,1.298801 l 0,0.07166 q 0,0.25976 -0.322461,0.25976 z m -3.305225,-0.45682 -0.02687,0.116445 3.32314,0 -0.02687,-0.116445 q -0.125402,-0.564306 -0.465777,-0.904682 -0.519521,-0.546392 -1.191314,-0.546392 -0.671794,0 -1.137571,0.546392 -0.367247,0.394119 -0.474734,0.904682 z"
     style="font-style:normal;font-variant:normal;font-weight:normal;font-stretch:normal;font-size:9.17222404px;line-height:0;font-family:DosisRLS-Thin;-inkscape-font-specification:'DosisRLS-Thin, Normal';text-align:start;letter-spacing:0.00282222px;word-spacing:0.84666675px;writing-mode:lr-tb;text-anchor:start;fill:#ff0000;fill-opacity:0.07843138;stroke:none;stroke-width:1px;stroke-linecap:butt;stroke-linejoin:miter;stroke-opacity:1"
     id="path4168" />
  <path
     d="m 36.909113,24.019989 q 0.134359,0 0.134359,-0.152274 0,-0.16123 -0.134359,-0.16123 -0.895725,0 -1.397331,0.573264 l -0.170188,0.179145 0,-0.644922 q 0,-0.125402 -0.170188,-0.125402 -0.179145,0 -0.179145,0.125402 l 0,4.021805 q 0,0.152273 0.179145,0.152273 0.188103,0 0.188103,-0.152273 l -0.009,-2.534902 q 0,-0.412033 0.492649,-0.895725 0.376205,-0.385161 1.065913,-0.385161 z"
     style="font-style:normal;font-variant:normal;font-weight:normal;font-stretch:normal;font-size:9.17222404px;line-height:0;font-family:DosisRLS-Thin;-inkscape-font-specification:'DosisRLS-Thin, Normal';text-align:start;letter-spacing:0.00282222px;word-spacing:0.84666675px;writing-mode:lr-tb;text-anchor:start;fill:#ff0000;fill-opacity:0.07843138;stroke:none;stroke-width:1px;stroke-linecap:butt;stroke-linejoin:miter;stroke-opacity:1"
     id="path4170" />
  <path
     d="m 43.601553,26.402617 q 0,0.797195 -0.45682,1.200272 -0.45682,0.403076 -1.1107,0.394119 -0.64492,0 -1.10174,-0.277675 -0.62701,-0.385162 -0.41203,-0.662837 0.0537,-0.07166 0.0896,-0.07166 0.0448,0 0.1254,0.08062 l 0.23289,0.232889 q 0.38516,0.331418 0.96738,0.349332 0.59118,0.009 0.93156,-0.295589 0.34037,-0.313504 0.34037,-0.949468 0,-0.635965 -0.58222,-1.030084 -0.17914,-0.134359 -0.48369,-0.268718 l -0.52848,-0.223931 q -0.3762,-0.179145 -0.54639,-0.295589 -0.28663,-0.19706 -0.42995,-0.671794 -0.0269,-0.116444 -0.0269,-0.295589 0,-0.841982 0.55535,-1.155485 0.5016,-0.286632 0.97634,-0.286632 0.47473,0 0.88677,0.134358 0.42099,0.125402 0.41203,0.286632 0,0.07166 -0.0537,0.152274 -0.0448,0.07166 -0.0717,0.07166 -0.0358,0 -0.10749,-0.03583 -0.42995,-0.250803 -1.03008,-0.277675 -0.29559,-0.009 -0.42099,0.04479 -0.1254,0.05374 -0.17915,0.08061 -0.34933,0.143316 -0.46577,0.394119 -0.11645,0.241846 -0.11645,0.546392 0,0.420991 0.46578,0.779281 0.1254,0.08957 0.4389,0.214974 0.32246,0.125401 1.02113,0.492649 0.29559,0.16123 0.48369,0.501606 0.19706,0.340375 0.19706,0.841981 z"
     style="font-style:normal;font-variant:normal;font-weight:normal;font-stretch:normal;font-size:9.17222404px;line-height:0;font-family:DosisRLS-Thin;-inkscape-font-specification:'DosisRLS-Thin, Normal';text-align:start;letter-spacing:0.00282222px;word-spacing:0.84666675px;writing-mode:lr-tb;text-anchor:start;fill:#ff8800;fill-opacity:0.07843138;stroke:none;stroke-width:1px;stroke-linecap:butt;stroke-linejoin:miter;stroke-opacity:1"
     id="path4172" />
  <path
     d="m 45.225633,24.548466 q -0.52847,0.528478 -0.52847,1.280887 0,0.752409 0.52847,1.289844 0.51057,0.528478 1.20028,0.528478 0.34037,0 0.63596,-0.134359 0.29559,-0.134359 0.55535,-0.394119 0.25976,-0.268717 0.39412,-0.591178 0.13436,-0.322461 0.13436,-0.698666 0,-0.250803 -0.0627,-0.474734 -0.0538,-0.223931 -0.17019,-0.429948 -0.11645,-0.206017 -0.29559,-0.376205 -0.25976,-0.25976 -0.55535,-0.394119 -0.29559,-0.134358 -0.63596,-0.134358 -0.68971,0 -1.20028,0.528477 z m -0.24184,2.80362 q -0.63597,-0.627008 -0.63597,-1.513776 0,-0.895725 0.63597,-1.522732 0.61805,-0.635965 1.4242,-0.644922 l 0.009,0 q 0.11644,0 0.22393,0.01791 0.10749,0.009 0.20602,0.03583 0.10748,0.02687 0.20601,0.0627 0.10749,0.03583 0.19706,0.08957 0.0985,0.05374 0.19706,0.116444 0.0985,0.0627 0.19706,0.143316 0.0985,0.08061 0.1881,0.170188 0.21498,0.214974 0.34934,0.456819 0.14331,0.232889 0.21497,0.501606 0.0717,0.268718 0.0717,0.573264 0,0.886768 -0.63597,1.513776 -0.61805,0.627007 -1.4242,0.635965 l -0.009,0 q -0.79719,0 -1.41524,-0.635965 z"
     style="font-style:normal;font-variant:normal;font-weight:normal;font-stretch:normal;font-size:9.17222404px;line-height:0;font-family:DosisRLS-Thin;-inkscape-font-specification:'DosisRLS-Thin, Normal';text-align:start;letter-spacing:0.00282222px;word-spacing:0.84666675px;writing-mode:lr-tb;text-anchor:start;fill:#ff8800;fill-opacity:0.07843138;stroke:none;stroke-width:1px;stroke-linecap:butt;stroke-linejoin:miter;stroke-opacity:1"
     id="path4174" />
  <path
     d="m 49.375663,27.934307 q -0.0448,-0.04479 -0.0448,-0.09853 l 0,-5.53558 q 0,-0.125402 0.17018,-0.125402 0.18811,0 0.18811,0.125402 l 0,5.53558 q 0,0.05374 -0.0448,0.09853 -0.0537,0.05374 -0.14332,0.05374 -0.0717,0 -0.1254,-0.05374 z"
     style="font-style:normal;font-variant:normal;font-weight:normal;font-stretch:normal;font-size:9.17222404px;line-height:0;font-family:DosisRLS-Thin;-inkscape-font-specification:'DosisRLS-Thin, Normal';text-align:start;letter-spacing:0.00282222px;word-spacing:0.84666675px;writing-mode:lr-tb;text-anchor:start;fill:#ff8800;fill-opacity:0.07843138;stroke:none;stroke-width:1px;stroke-linecap:butt;stroke-linejoin:miter;stroke-opacity:1"
     id="path4176" />
  <path
     d="m 50.722073,26.071199 0,-2.221398 q 0,-0.161231 0.1881,-0.161231 0.17019,0 0.17019,0.161231 l 0,2.221398 q 0,1.540647 1.35255,1.540647 1.4242,0 1.4242,-1.540647 l 0,-2.230355 q 0,-0.152274 0.17019,-0.152274 0.17018,0 0.17018,0.152274 l 0,2.230355 q 0,1.916851 -1.76457,1.916851 -1.71084,0 -1.71084,-1.916851 z"
     style="font-style:normal;font-variant:normal;font-weight:normal;font-stretch:normal;font-size:9.17222404px;line-height:0;font-family:DosisRLS-Thin;-inkscape-font-specification:'DosisRLS-Thin, Normal';text-align:start;letter-spacing:0.00282222px;word-spacing:0.84666675px;writing-mode:lr-tb;text-anchor:start;fill:#ff8800;fill-opacity:0.07843138;stroke:none;stroke-width:1px;stroke-linecap:butt;stroke-linejoin:miter;stroke-opacity:1"
     id="path4178" />
  <path
     d="M 55.561813,27.674547 Q 55.230393,27.37 55.239353,26.716121 l 0.009,-4.424882 q 0.009,-0.116444 0.17018,-0.116444 0.16123,0 0.16123,0.116444 l 0,1.397331 1.33463,0 q 0.12541,0 0.12541,0.161231 0,0.152273 -0.12541,0.152273 l -1.33463,0 0,2.714047 q 0,0.420991 0.27768,0.698665 0.20602,0.214974 0.72554,0.214974 l 0.25976,0 q 0.0717,0 0.13436,0.04479 0.0537,0.04479 0.0537,0.125401 0,0.02687 0,0.03583 -0.009,0.02687 -0.009,0.03583 -0.009,0.009 -0.0179,0.02687 -0.009,0.02687 -0.0269,0.02687 -0.0448,0.009 -0.0627,0.04479 -0.009,0.01791 -0.0717,0.01791 l -0.25976,0 q -0.68971,0 -1.02113,-0.313503 z"
     style="font-style:normal;font-variant:normal;font-weight:normal;font-stretch:normal;font-size:9.17222404px;line-height:0;font-family:DosisRLS-Thin;-inkscape-font-specification:'DosisRLS-Thin, Normal';text-align:start;letter-spacing:0.00282222px;word-spacing:0.84666675px;writing-mode:lr-tb;text-anchor:start;fill:#ff8800;fill-opacity:0.07843138;stroke:none;stroke-width:1px;stroke-linecap:butt;stroke-linejoin:miter;stroke-opacity:1"
     id="path4180" />
  <path
     d="m 58.314513,22.371855 q 0,0.214974 -0.22393,0.223931 -0.22393,0 -0.22393,-0.214974 -0.009,-0.214974 0.22393,-0.214974 0.22393,0 0.22393,0.206017 z m -0.34933,5.562452 q -0.0537,-0.04479 -0.0537,-0.09853 l 0,-4.021805 q 0,-0.125402 0.17915,-0.125402 0.1881,0 0.1881,0.125402 l 0,4.021805 q 0,0.04479 -0.0537,0.09853 -0.0537,0.05374 -0.13436,0.05374 -0.0717,0 -0.1254,-0.05374 z"
     style="font-style:normal;font-variant:normal;font-weight:normal;font-stretch:normal;font-size:9.17222404px;line-height:0;font-family:DosisRLS-Thin;-inkscape-font-specification:'DosisRLS-Thin, Normal';text-align:start;letter-spacing:0.00282222px;word-spacing:0.84666675px;writing-mode:lr-tb;text-anchor:start;fill:#ff8800;fill-opacity:0.07843138;stroke:none;stroke-width:1px;stroke-linecap:butt;stroke-linejoin:miter;stroke-opacity:1"
     id="path4182" />
  <path
     d="m 60.019213,24.548466 q -0.52848,0.528478 -0.52848,1.280887 0,0.752409 0.52848,1.289844 0.51056,0.528478 1.20027,0.528478 0.34038,0 0.63597,-0.134359 0.29558,-0.134359 0.55534,-0.394119 0.25976,-0.268717 0.39412,-0.591178 0.13436,-0.322461 0.13436,-0.698666 0,-0.250803 -0.0627,-0.474734 -0.0537,-0.223931 -0.17019,-0.429948 -0.11644,-0.206017 -0.29559,-0.376205 -0.25976,-0.25976 -0.55534,-0.394119 -0.29559,-0.134358 -0.63597,-0.134358 -0.68971,0 -1.20027,0.528477 z m -0.24185,2.80362 q -0.63596,-0.627008 -0.63596,-1.513776 0,-0.895725 0.63596,-1.522732 0.61805,-0.635965 1.42421,-0.644922 l 0.009,0 q 0.11645,0 0.22393,0.01791 0.10749,0.009 0.20602,0.03583 0.10749,0.02687 0.20602,0.0627 0.10748,0.03583 0.19706,0.08957 0.0985,0.05374 0.19706,0.116444 0.0985,0.0627 0.19706,0.143316 0.0985,0.08061 0.1881,0.170188 0.21497,0.214974 0.34933,0.456819 0.14332,0.232889 0.21498,0.501606 0.0717,0.268718 0.0717,0.573264 0,0.886768 -0.63596,1.513776 -0.61805,0.627007 -1.4242,0.635965 l -0.009,0 q -0.7972,0 -1.41525,-0.635965 z"
     style="font-style:normal;font-variant:normal;font-weight:normal;font-stretch:normal;font-size:9.17222404px;line-height:0;font-family:DosisRLS-Thin;-inkscape-font-specification:'DosisRLS-Thin, Normal';text-align:start;letter-spacing:0.00282222px;word-spacing:0.84666675px;writing-mode:lr-tb;text-anchor:start;fill:#ff8800;fill-opacity:0.07843138;stroke:none;stroke-width:1px;stroke-linecap:butt;stroke-linejoin:miter;stroke-opacity:1"
     id="path4184" />
  <path
     d="m 64.070713,27.82682 0,-4.030763 q 0,-0.125401 0.1881,-0.125401 0.17915,0 0.17915,0.125401 l 0,0.725538 0.17018,-0.241846 q 0.45682,-0.573264 1.28985,-0.591179 1.74666,0.01791 1.74666,1.63022 l -0.009,2.499073 q 0,0.170187 -0.17018,0.170187 -0.17019,0 -0.17019,-0.170187 l 0,-2.525945 q -0.0537,-1.227143 -1.38837,-1.2361 -0.62701,0.04479 -0.94947,0.35829 -0.51057,0.492648 -0.51057,0.922596 l 0.009,2.490116 q 0,0.16123 -0.19706,0.16123 -0.1881,0 -0.1881,-0.16123 z"
     style="font-style:normal;font-variant:normal;font-weight:normal;font-stretch:normal;font-size:9.17222404px;line-height:0;font-family:DosisRLS-Thin;-inkscape-font-specification:'DosisRLS-Thin, Normal';text-align:start;letter-spacing:0.00282222px;word-spacing:0.84666675px;writing-mode:lr-tb;text-anchor:start;fill:#ff8800;fill-opacity:0.07843138;stroke:none;stroke-width:1px;stroke-linecap:butt;stroke-linejoin:miter;stroke-opacity:1"
     id="path4186" />
  <path
     d="m 68.767133,27.755162 q -0.36725,-0.188102 -0.36725,-0.367247 0.009,-0.0627 0.0448,-0.125402 0.0358,-0.05374 0.0717,-0.05374 0.0358,0.009 0.15228,0.08957 0.0717,0.05374 0.17018,0.107487 0.10749,0.05374 0.24185,0.116444 0.27767,0.116445 0.65388,0.116445 0.51952,0 0.77032,-0.206017 0.25976,-0.206017 0.25976,-0.537435 0,-0.376205 -0.26872,-0.600136 -0.24184,-0.206017 -0.59117,-0.304546 -0.33142,-0.08957 -0.66284,-0.19706 -0.3135,-0.107487 -0.53744,-0.340375 -0.20601,-0.223932 -0.20601,-0.609093 0,-0.465777 0.33142,-0.806153 0.34037,-0.349333 1.03008,-0.349333 0.42995,0 0.80615,0.134359 0.33142,0.116444 0.33142,0.223931 0,0.0627 -0.0537,0.143316 -0.0179,0.02687 -0.0358,0.04479 -0.0179,0.01791 -0.0358,0.02687 -0.009,0 -0.0269,0 -0.0627,-0.01791 -0.31351,-0.116444 -0.10748,-0.04479 -0.21497,-0.07166 -0.10749,-0.03583 -0.22393,-0.04479 -0.10749,-0.01792 -0.22393,-0.01792 -0.49265,0 -0.75241,0.241846 -0.1254,0.125401 -0.19706,0.268717 -0.0627,0.134359 -0.0627,0.29559 0,0.331418 0.27767,0.51952 0.0806,0.0627 0.17019,0.107487 0.0985,0.04479 0.20602,0.08957 0.10748,0.03583 0.21497,0.07166 0.33142,0.08957 0.66284,0.19706 0.16123,0.05374 0.28663,0.152273 0.13436,0.08957 0.24185,0.223931 0.10748,0.134359 0.16123,0.304547 0.0537,0.170187 0.0537,0.385161 0,0.501606 -0.35829,0.797196 -0.36725,0.295589 -1.02113,0.295589 -0.29559,0 -0.54639,-0.05374 -0.24185,-0.05374 -0.4389,-0.152273 z"
     style="font-style:normal;font-variant:normal;font-weight:normal;font-stretch:normal;font-size:9.17222404px;line-height:0;font-family:DosisRLS-Thin;-inkscape-font-specification:'DosisRLS-Thin, Normal';text-align:start;letter-spacing:0.00282222px;word-spacing:0.84666675px;writing-mode:lr-tb;text-anchor:start;fill:#ff8800;fill-opacity:0.07843138;stroke:none;stroke-width:1px;stroke-linecap:butt;stroke-linejoin:miter;stroke-opacity:1"
     id="path4188" />
</svg>
